PathFileType	4	(X/Y/Z)	Patient4_TMGait_0pt8_01_left_40.trc.trc
DataRate	CameraRate	NumFrames	NumMarkers	Units	OrigDataRate	OrigDataStartFrame	OrigNumFrames
89.743589743590	89.743589743590	5	33	mm	89.743589743590	124	       141
Frame#	Time	Sacral			L.Shoulder			Chest			R.Shoulder			Neck			R.ASIS			L.ASIS			R.Thigh.Superior			R.Thigh.Lateral			R.Thigh.Inferior			R.Patella			L.Thigh.Superior			L.Thigh.Lateral			L.Thigh.Inferior			L.Patella			L.Shank.Superior			L.Shank.Lateral			L.Shank.Inferior			R.Shank.Superior			R.Shank.Lateral			R.Shank.Inferior			R.Heel			R.Midfoot.Superior			R.Midfoot.Lateral			R.Toe			L.Heel			L.Midfoot.Lateral			L.Midfoot.Superior			L.Toe			L.Elbow			L.Wrist			R.Elbow			R.Wrist			
		X1	Y1	Z1	X2	Y2	Z2	X3	Y3	Z3	X4	Y4	Z4	X5	Y5	Z5	X6	Y6	Z6	X7	Y7	Z7	X8	Y8	Z8	X9	Y9	Z9	X10	Y10	Z10	X11	Y11	Z11	X12	Y12	Z12	X13	Y13	Z13	X14	Y14	Z14	X15	Y15	Z15	X16	Y16	Z16	X17	Y17	Z17	X18	Y18	Z18	X19	Y19	Z19	X20	Y20	Z20	X21	Y21	Z21	X22	Y22	Z22	X23	Y23	Z23	X24	Y24	Z24	X25	Y25	Z25	X26	Y26	Z26	X27	Y27	Z27	X28	Y28	Z28	X29	Y29	Z29	X30	Y30	Z30	X31	Y31	Z31	X32	Y32	Z32	X33	Y33	Z33	

124	45.690571428571	868.668093731620	997.942735193324	506.069709443930	1023.836305723812	1422.110737768649	316.383670830000	1146.530183802302	1351.565215405043	463.167538925842	1084.089942996792	1424.264671049137	646.246104695947	1024.210428657198	1480.736731373456	472.564593293582	1097.837327242689	925.655320055705	608.349922222291	1069.445530195020	944.653572891568	334.340829714133	1080.769649811140	710.943239622663	584.060699455132	967.202636536077	625.320078240559	645.316786561431	1021.809876216684	555.015918983171	566.417110651727	996.064232669701	471.325579540810	570.463049708529	1141.040260941081	762.363591656310	361.047593325740	1087.378302794427	632.310242921484	283.826331202157	1196.388624040531	576.445356768604	337.830160416511	1224.562637625043	514.407849772032	334.088295944819	1211.857263729815	442.862926645113	325.677018340846	1151.164044266044	307.219999505574	284.893617375066	1250.844186495471	216.798768671276	332.682218985052	951.654622126590	390.554788005439	576.966224121262	862.039699051088	301.932533269680	639.143661776542	885.319034035103	201.416624862646	574.812935293696	728.557666237239	48.126007131600	539.939753177403	900.305117862686	96.850220842738	581.475808706936	808.963352305870	38.795171991324	616.808482042694	1017.351023847829	39.563762838655	613.952435020145	1182.696309486414	37.780688850985	378.595362290265	1252.725848758249	42.906391049025	295.130894192957	1322.493824333579	120.765540694481	312.593634026969	1455.067626315985	93.256143916567	280.277299220795	857.779364987696	1114.707140771800	226.914758953431	775.335808807531	870.388453824981	232.186962576679	1248.739898130888	1127.539986436813	753.480460994211	1478.245313083218	1209.165261608590	683.804349388973	
125	45.701714285714	870.040885478444	997.086977986370	503.302772378882	1024.376003067261	1421.315149411926	313.761846697222	1147.040712189935	1350.918197453711	460.625355632273	1084.304170115988	1423.749377178767	643.519348589120	1024.490848111502	1479.847685856239	469.891791118836	1098.667208019466	924.525407234158	605.837425574424	1070.625881591485	943.628247553776	331.731563998840	1080.647116622803	709.589364634248	582.182648062671	966.325225066989	624.705242776190	643.345317303418	1020.911948194007	553.633385090167	564.928717160856	994.399174132088	469.466157766856	569.006716747073	1142.472856901128	761.133791242690	358.641424896271	1086.758879360282	630.376810301814	283.889601930539	1196.069094221703	574.847219306633	337.325126378310	1223.115601647510	512.027034972287	334.698960876474	1210.118581071878	440.052445624677	326.316992518015	1147.848968664770	304.857515421206	286.675788391044	1246.467368825461	213.702872330382	334.829735533816	948.559456806295	389.429963573123	575.744479229648	857.353192045762	302.582935790534	638.295994971772	878.792446461876	201.418359497377	574.486973627228	719.767534224070	49.841940226264	540.365037347064	891.897505555692	97.035418678929	581.616279815236	800.218912460859	39.464212755464	617.057856106675	1008.561378832178	39.119816466700	614.082266436165	1175.058930042937	37.400964951361	381.213774027949	1245.002531001813	41.186664962743	297.529878734822	1317.126826329615	116.344503254573	315.836875629643	1448.868463047590	84.786682399532	283.036827203800	856.205508574673	1115.579185704708	224.838871754452	770.911467451325	872.157533338391	230.541983345876	1250.408151012915	1128.429905582368	750.822308653144	1476.115203854713	1217.802005934707	680.364244517677	
126	45.712857142857	871.481423984477	996.256931361175	500.405146416260	1024.993864737891	1420.512951120781	311.020750021057	1147.595953962107	1350.344565115345	458.035786455697	1084.487593678671	1423.282206564203	640.758585937800	1024.811200356810	1479.031025668416	467.124238827066	1099.560431461641	923.466369643801	603.267810330695	1072.019321534482	942.799501780407	329.130280063076	1080.786726546740	708.337668628301	580.246572231501	965.827935534793	624.074409559935	641.283644673157	1020.535275087331	552.260466978903	563.383596876755	993.326759544952	467.446296223664	567.574090712551	1144.183948851704	760.131418098599	356.278836058680	1086.804489254447	628.948131709533	283.555899891070	1196.202753666089	573.619554198928	336.825112048169	1221.981991709413	509.875494000945	335.232699643661	1208.698752081100	437.486530768294	326.697873488641	1144.858795485434	302.946141757958	287.526850490413	1241.890714597784	210.771040873350	336.460260953978	945.896170803143	388.273672957590	574.539877391442	852.987951252037	303.340077356382	637.426679130181	872.476932647611	201.516470667636	574.191296671998	710.998123483942	51.920904897792	540.863197812056	883.620523488012	97.267808150464	581.831099956200	791.490119730007	40.293202055917	617.358192527058	999.776112355064	38.711524509035	614.192521287300	1166.597921104568	37.244610131268	383.021170139578	1236.614262495426	39.636425467223	299.230341360803	1311.131137150466	112.042383794614	318.546464612332	1442.055528623622	76.333997877161	285.536071479472	855.497886880307	1115.837087910918	222.672565722014	767.751677959698	873.225281206343	228.603324114916	1251.506156614680	1128.888258702745	748.251863413844	1473.563584909405	1225.141703212996	677.096183355976	
127	45.724000000000	872.913660410509	995.500067068982	497.411162877931	1025.686495677335	1419.744821183117	308.183487357882	1148.189523758482	1349.871632128988	455.417407839603	1084.655344170771	1422.904999638675	637.983246255079	1025.179421823448	1478.336496240839	464.282537845740	1100.482231020285	922.517346651226	600.642697611209	1073.537872553588	942.198978452127	326.541801456892	1081.206171564736	707.232000007573	578.234091552265	965.782180871565	623.428237515910	639.138790867761	1020.746329682861	550.930638839831	561.764498085897	992.941675756878	465.277998605292	566.198180880612	1146.093675626740	759.429908454093	354.016881157228	1087.550424246406	628.128422589341	282.722329791655	1196.777136296119	572.826642192602	336.245149936595	1221.185867222466	508.069009945927	335.544298214576	1207.632314555474	435.284746214765	326.749598879254	1142.315185117845	301.566684181473	287.361337875502	1237.263096987735	208.157823289119	337.523427708847	943.729159475908	387.102673798816	573.376364454713	849.011223900057	304.250063561017	636.554240260247	866.435744318725	201.754285787644	573.943409605257	702.294770441556	54.453171478403	541.429210089901	875.522644901279	97.542580875791	582.119598844731	782.800956330792	41.331329575531	617.702837343243	990.992529593508	38.349874278890	614.273152172434	1157.699235463029	37.283554641929	384.057915575422	1227.908471579238	38.318226591875	300.251304030349	1304.664137320500	108.133914165073	320.620449723148	1434.835707892264	68.510247907802	287.651528732375	855.661088837930	1115.494951377933	220.387628531328	765.922898435884	873.561924567407	226.374807137739	1251.977974595266	1128.890390135588	745.784982495916	1470.651094184853	1231.146450736565	674.005514354613	
128	45.735142857143	874.263337696390	994.871846214012	494.349121157284	1026.442489522700	1419.067327157779	305.281717781012	1148.810191857064	1349.535894651230	452.790671305889	1084.821427353917	1422.668749031094	635.211651868259	1025.595713617614	1477.818971169513	461.393587594279	1101.396021533331	921.725433246765	597.953007161369	1075.090161211450	941.863609068696	323.953190780869	1081.926555473322	706.324197290051	576.114949529479	966.270212994611	622.774002714509	636.917405352321	1021.630102317598	549.684513560242	560.057351400180	993.359832294463	462.987653287210	564.918609410825	1148.113971372292	759.103143951805	351.881270624115	1088.966935736914	627.971590707020	281.347035345564	1197.734961605232	572.496414789787	335.504627568294	1220.713170311931	506.682589541517	335.520319991423	1206.892575083026	433.515023933788	326.453096698212	1140.222926878682	300.751200979867	286.222439953076	1232.634770142956	205.961590431124	338.045964036507	942.150356220754	385.940651130440	572.281373210810	845.513454162969	305.373009975094	635.692338633568	860.759097059903	202.188293445038	573.760398048029	693.733141740995	57.557569890556	542.048608867092	867.670411090188	97.863872772679	582.478534119092	774.193401424494	42.653914969486	618.078275677876	982.209569877870	38.041531052510	614.315546720697	1148.640328026218	37.466321264798	384.437686564713	1219.110294089877	37.268735374190	300.675180085267	1297.805407060162	104.822233971955	322.038035592878	1427.324809944550	61.795147743136	289.296253345652	856.696671232503	1114.602652195038	217.959047882280	765.508503477666	873.166686737396	223.868374499451	1251.744872941600	1128.429927140138	743.430097753740	1467.415917681180	1235.763751730472	671.098588172907	
